<svg id="Calque_1" data-name="Calque 1" xmlns="http://www.w3.org/2000/svg" xmlns:xlink="http://www.w3.org/1999/xlink" viewBox="0 0 2001 2001"><defs><style>.cls-1{fill:url(#Dégradé_sans_nom_3);}.cls-2{fill:url(#Dégradé_sans_nom_3-2);}.cls-3{fill:url(#Dégradé_sans_nom_3-3);}</style><linearGradient id="Dégradé_sans_nom_3" x1="1525.5" y1="828.17" x2="813.76" y2="2191.45" gradientTransform="translate(0 -454)" gradientUnits="userSpaceOnUse"><stop offset="0" stop-color="#00ffa3"/><stop offset="1" stop-color="#dc1fff"/></linearGradient><linearGradient id="Dégradé_sans_nom_3-2" x1="1214.31" y1="665.71" x2="502.57" y2="2028.98" xlink:href="#Dégradé_sans_nom_3"/><linearGradient id="Dégradé_sans_nom_3-3" x1="1368.91" y1="746.42" x2="657.17" y2="2109.69" xlink:href="#Dégradé_sans_nom_3"/></defs><path d="M1000.5,2000.5c554.17,0,1000-445.83,1000-1000S1554.67.5,1000.5.5.5,446.33.5,1000.5,446.33,2000.5,1000.5,2000.5Z"/><path class="cls-1" d="M565.52,1266.35a42.11,42.11,0,0,1,29.8-12.31H1623.73c18.8,0,28.19,22.68,14.91,36l-203.16,203.16a42.16,42.16,0,0,1-29.8,12.31H377.26c-18.79,0-28.18-22.68-14.9-36Z"/><path class="cls-2" d="M565.52,507.84a43.34,43.34,0,0,1,29.8-12.31H1623.74c18.79,0,28.18,22.68,14.9,36L1435.48,734.65a42.11,42.11,0,0,1-29.8,12.31H377.26c-18.79,0-28.18-22.68-14.9-36Z"/><path class="cls-3" d="M1435.48,884.67a42.12,42.12,0,0,0-29.8-12.32H377.26c-18.79,0-28.18,22.68-14.9,36l203.16,203.15a42.12,42.12,0,0,0,29.8,12.32H1623.73c18.8,0,28.19-22.68,14.91-36Z"/></svg>